<svg xmlns="http://www.w3.org/2000/svg" width="417.333" height="417.333" preserveAspectRatio="xMidYMid meet" version="1.0" viewBox="0 0 313 313"><metadata>Created by potrace 1.14, written by Peter Selinger 2001-2017</metadata><g fill="#000" stroke="none"><path d="M1526 2714 c-93 -23 -173 -96 -206 -188 -33 -90 -35 -126 -11 -172 12 -21 21 -46 21 -55 0 -23 44 -78 138 -174 45 -47 82 -89 82 -94 0 -24 -21 -61 -34 -61 -8 0 -24 14 -36 30 -23 32 -36 35 -91 20 -68 -19 -219 -191 -219 -249 0 -12 -11 -44 -25 -71 -17 -34 -25 -66 -25 -102 -1 -29 -10 -78 -21 -108 -11 -30 -25 -77 -30 -105 -6 -27 -17 -57 -24 -65 -8 -8 -22 -35 -33 -60 -11 -25 -40 -67 -65 -95 l-45 -50 -233 3 c-174 1 -239 -1 -254 -10 -12 -7 -35 -22 -53 -33 -20 -12 -38 -36 -48 -62 -26 -68 -7 -120 74 -200 36 -34 70 -63 74 -63 5 0 24 -11 41 -24 18 -13 45 -26 61 -30 15 -4 40 -15 55 -25 14 -11 46 -22 69 -25 24 -4 62 -16 83 -27 59 -30 237 -45 484 -40 346 6 521 5 695 -3 211 -10 462 11 513 43 18 11 53 23 77 27 25 4 63 17 86 30 22 13 47 24 54 24 22 0 99 53 165 113 110 101 119 189 26 265 l-46 37 -247 0 c-136 1 -249 3 -251 5 -2 3 -23 30 -48 60 -49 60 -109 169 -109 199 0 10 -11 49 -25 85 -15 40 -25 88 -25 119 0 33 -9 70 -24 102 -12 28 -26 68 -30 90 -4 21 -16 50 -27 64 -107 139 -149 176 -214 185 -41 7 -46 5 -75 -26 -29 -32 -31 -32 -45 -14 -23 30 -19 74 8 88 18 9 74 67 163 171 13 15 63 131 71 163 3 12 -4 43 -15 70 -11 27 -23 61 -26 76 -3 14 -33 53 -66 86 -54 55 -65 61 -131 76 -83 19 -104 19 -183 0z m189 -142 c69 -52 95 -94 95 -153 0 -43 -5 -55 -52 -111 -78 -95 -120 -138 -138 -138 -16 0 -120 105 -167 168 -34 45 -32 126 5 175 42 58 108 97 162 97 37 0 54 -7 95 -38z m-235 -667 c11 -13 9 -20 -13 -43 -15 -16 -27 -34 -27 -41 0 -7 -11 -34 -24 -60 -38 -74 -68 -152 -78 -206 -5 -27 -16 -72 -24 -99 -25 -78 -28 -181 -10 -261 10 -38 21 -101 26 -138 6 -52 13 -73 29 -84 13 -9 21 -25 21 -44 0 -24 -4 -29 -24 -29 -14 0 -37 11 -53 23 -15 13 -43 29 -61 35 -18 6 -39 18 -48 26 -8 9 -32 20 -52 26 -70 18 -106 78 -66 111 26 21 84 115 84 135 0 10 11 42 24 70 13 28 27 75 31 105 3 30 15 80 26 111 10 31 22 76 25 100 13 80 86 203 147 248 47 35 50 35 67 15z m344 -14 c20 -16 45 -40 55 -53 36 -45 91 -165 91 -196 0 -17 11 -61 25 -98 14 -36 25 -85 25 -108 0 -22 11 -64 24 -92 13 -28 27 -66 31 -84 7 -32 54 -109 87 -142 10 -10 18 -27 18 -37 0 -23 -54 -71 -79 -71 -10 0 -34 -11 -53 -24 -20 -13 -51 -29 -69 -35 -19 -6 -43 -20 -52 -32 -21 -24 -70 -23 -75 2 -2 9 9 30 23 47 18 22 28 49 35 99 5 37 16 102 25 143 17 80 14 163 -10 230 -7 19 -16 60 -20 90 -4 30 -18 76 -31 102 -13 26 -24 55 -24 64 0 10 -11 36 -24 58 -13 23 -26 53 -30 68 -3 15 -15 32 -26 38 -19 10 -27 40 -13 53 12 13 30 7 67 -22z m-186 -34 c6 -6 14 -26 18 -42 4 -17 15 -40 25 -53 10 -13 21 -37 25 -55 3 -18 14 -43 24 -57 10 -14 21 -45 25 -70 4 -25 17 -63 28 -85 18 -34 22 -63 25 -186 4 -140 3 -150 -21 -205 -14 -33 -28 -75 -31 -95 -4 -24 -23 -53 -59 -92 -57 -62 -83 -70 -122 -39 -37 29 -95 110 -95 132 0 12 -12 48 -26 82 -25 59 -26 68 -22 217 3 138 6 161 26 198 12 23 22 57 22 76 0 20 10 47 25 67 14 19 25 43 25 55 0 12 11 36 25 55 14 19 25 42 25 53 0 45 35 72 58 44z m-953 -855 c34 -6 43 -13 58 -45 22 -47 55 -61 107 -47 21 6 43 17 50 25 17 20 38 19 85 -5 22 -11 46 -20 55 -20 9 0 31 -11 50 -25 19 -14 41 -25 51 -25 9 0 28 -9 42 -20 14 -11 45 -29 68 -40 24 -11 51 -24 59 -30 8 -5 28 -15 43 -20 22 -8 28 -15 25 -33 -3 -22 -3 -22 -198 -21 -172 0 -203 3 -264 22 -37 12 -83 22 -101 22 -17 0 -52 11 -76 23 -24 13 -57 27 -74 31 -16 4 -44 18 -62 32 -17 13 -35 24 -40 24 -22 0 -113 72 -113 90 0 50 121 82 235 62z m2033 -7 c51 -16 77 -41 67 -67 -7 -15 -96 -78 -112 -78 -6 0 -22 -9 -37 -21 -14 -11 -43 -25 -64 -31 -20 -6 -49 -19 -63 -29 -15 -10 -55 -23 -90 -28 -35 -5 -84 -17 -109 -26 -35 -13 -92 -18 -246 -22 -181 -5 -201 -4 -207 11 -8 20 25 56 52 56 10 0 24 6 30 14 6 8 26 20 44 27 18 7 47 24 66 36 19 13 41 23 50 23 10 0 32 11 51 25 19 14 41 25 50 25 8 0 32 9 53 20 41 22 72 26 83 9 3 -6 22 -18 41 -26 51 -21 98 -3 113 43 7 22 19 36 33 39 12 2 31 6 42 8 44 10 104 6 153 -8z" transform="translate(0.000000,313.000000) scale(0.100000,-0.100000)"/></g></svg>